<mxfile host="Electron" modified="2024-03-26T16:13:33.449Z" agent="Mozilla/5.0 (Windows NT 10.0; Win64; x64) AppleWebKit/537.36 (KHTML, like Gecko) draw.io/21.6.8 Chrome/114.0.5735.289 Electron/25.5.0 Safari/537.36" etag="dbrU7lJFlGdjd4luFpgg" version="21.6.8" type="device">
  <diagram name="Page-1" id="ZFyOtE-G0_OFLYM4s1jc">
    <mxGraphModel dx="1728" dy="1112" grid="1" gridSize="10" guides="1" tooltips="1" connect="1" arrows="1" fold="1" page="1" pageScale="1" pageWidth="850" pageHeight="1100" math="0" shadow="0">
      <root>
        <mxCell id="0" />
        <mxCell id="1" parent="0" />
        <mxCell id="nXGKTlA9eaVRCVyVd96u-1" value="" style="rounded=0;whiteSpace=wrap;html=1;" vertex="1" parent="1">
          <mxGeometry x="320" y="40" width="180" height="520" as="geometry" />
        </mxCell>
        <mxCell id="nXGKTlA9eaVRCVyVd96u-2" value="Login" style="rounded=0;whiteSpace=wrap;html=1;" vertex="1" parent="1">
          <mxGeometry x="350" y="60" width="120" height="60" as="geometry" />
        </mxCell>
        <mxCell id="nXGKTlA9eaVRCVyVd96u-3" value="Register" style="rounded=0;whiteSpace=wrap;html=1;" vertex="1" parent="1">
          <mxGeometry x="350" y="130" width="120" height="60" as="geometry" />
        </mxCell>
        <mxCell id="nXGKTlA9eaVRCVyVd96u-4" value="Display Posts" style="rounded=0;whiteSpace=wrap;html=1;" vertex="1" parent="1">
          <mxGeometry x="350" y="200" width="120" height="60" as="geometry" />
        </mxCell>
        <mxCell id="nXGKTlA9eaVRCVyVd96u-5" value="Post posts" style="rounded=0;whiteSpace=wrap;html=1;" vertex="1" parent="1">
          <mxGeometry x="350" y="270" width="120" height="60" as="geometry" />
        </mxCell>
        <mxCell id="nXGKTlA9eaVRCVyVd96u-6" value="follow" style="rounded=0;whiteSpace=wrap;html=1;" vertex="1" parent="1">
          <mxGeometry x="350" y="340" width="120" height="60" as="geometry" />
        </mxCell>
        <mxCell id="nXGKTlA9eaVRCVyVd96u-7" value="account" style="rounded=0;whiteSpace=wrap;html=1;" vertex="1" parent="1">
          <mxGeometry x="350" y="410" width="120" height="60" as="geometry" />
        </mxCell>
        <mxCell id="nXGKTlA9eaVRCVyVd96u-8" value="messeges" style="rounded=0;whiteSpace=wrap;html=1;" vertex="1" parent="1">
          <mxGeometry x="350" y="480" width="120" height="60" as="geometry" />
        </mxCell>
        <mxCell id="nXGKTlA9eaVRCVyVd96u-9" value="User" style="rounded=0;whiteSpace=wrap;html=1;" vertex="1" parent="1">
          <mxGeometry x="40" y="280" width="120" height="60" as="geometry" />
        </mxCell>
        <mxCell id="nXGKTlA9eaVRCVyVd96u-10" value="" style="endArrow=classic;html=1;rounded=0;entryX=0;entryY=0.5;entryDx=0;entryDy=0;exitX=1;exitY=0.5;exitDx=0;exitDy=0;" edge="1" parent="1" source="nXGKTlA9eaVRCVyVd96u-9" target="nXGKTlA9eaVRCVyVd96u-2">
          <mxGeometry width="50" height="50" relative="1" as="geometry">
            <mxPoint x="200" y="200" as="sourcePoint" />
            <mxPoint x="250" y="150" as="targetPoint" />
          </mxGeometry>
        </mxCell>
        <mxCell id="nXGKTlA9eaVRCVyVd96u-11" value="" style="endArrow=classic;html=1;rounded=0;entryX=0;entryY=0.5;entryDx=0;entryDy=0;exitX=1;exitY=0.5;exitDx=0;exitDy=0;" edge="1" parent="1" source="nXGKTlA9eaVRCVyVd96u-9" target="nXGKTlA9eaVRCVyVd96u-3">
          <mxGeometry width="50" height="50" relative="1" as="geometry">
            <mxPoint x="220" y="340" as="sourcePoint" />
            <mxPoint x="270" y="290" as="targetPoint" />
          </mxGeometry>
        </mxCell>
        <mxCell id="nXGKTlA9eaVRCVyVd96u-12" value="" style="endArrow=classic;html=1;rounded=0;entryX=0;entryY=0.5;entryDx=0;entryDy=0;exitX=1;exitY=0.5;exitDx=0;exitDy=0;" edge="1" parent="1" source="nXGKTlA9eaVRCVyVd96u-9" target="nXGKTlA9eaVRCVyVd96u-4">
          <mxGeometry width="50" height="50" relative="1" as="geometry">
            <mxPoint x="170" y="320" as="sourcePoint" />
            <mxPoint x="360" y="170" as="targetPoint" />
          </mxGeometry>
        </mxCell>
        <mxCell id="nXGKTlA9eaVRCVyVd96u-13" value="" style="endArrow=classic;html=1;rounded=0;entryX=0;entryY=0.5;entryDx=0;entryDy=0;exitX=1;exitY=0.5;exitDx=0;exitDy=0;" edge="1" parent="1" source="nXGKTlA9eaVRCVyVd96u-9" target="nXGKTlA9eaVRCVyVd96u-5">
          <mxGeometry width="50" height="50" relative="1" as="geometry">
            <mxPoint x="170" y="320" as="sourcePoint" />
            <mxPoint x="360" y="240" as="targetPoint" />
          </mxGeometry>
        </mxCell>
        <mxCell id="nXGKTlA9eaVRCVyVd96u-14" value="" style="endArrow=classic;html=1;rounded=0;entryX=0;entryY=0.5;entryDx=0;entryDy=0;exitX=1;exitY=0.5;exitDx=0;exitDy=0;" edge="1" parent="1" source="nXGKTlA9eaVRCVyVd96u-9" target="nXGKTlA9eaVRCVyVd96u-6">
          <mxGeometry width="50" height="50" relative="1" as="geometry">
            <mxPoint x="170" y="320" as="sourcePoint" />
            <mxPoint x="360" y="310" as="targetPoint" />
          </mxGeometry>
        </mxCell>
        <mxCell id="nXGKTlA9eaVRCVyVd96u-15" value="" style="endArrow=classic;html=1;rounded=0;entryX=0;entryY=0.5;entryDx=0;entryDy=0;exitX=1;exitY=0.5;exitDx=0;exitDy=0;" edge="1" parent="1" source="nXGKTlA9eaVRCVyVd96u-9" target="nXGKTlA9eaVRCVyVd96u-7">
          <mxGeometry width="50" height="50" relative="1" as="geometry">
            <mxPoint x="180" y="330" as="sourcePoint" />
            <mxPoint x="370" y="320" as="targetPoint" />
          </mxGeometry>
        </mxCell>
        <mxCell id="nXGKTlA9eaVRCVyVd96u-16" value="" style="endArrow=classic;html=1;rounded=0;entryX=0.016;entryY=0.597;entryDx=0;entryDy=0;exitX=1;exitY=0.5;exitDx=0;exitDy=0;entryPerimeter=0;" edge="1" parent="1" source="nXGKTlA9eaVRCVyVd96u-9" target="nXGKTlA9eaVRCVyVd96u-8">
          <mxGeometry width="50" height="50" relative="1" as="geometry">
            <mxPoint x="190" y="340" as="sourcePoint" />
            <mxPoint x="380" y="330" as="targetPoint" />
          </mxGeometry>
        </mxCell>
        <mxCell id="nXGKTlA9eaVRCVyVd96u-17" value="login" style="shape=cylinder3;whiteSpace=wrap;html=1;boundedLbl=1;backgroundOutline=1;size=15;" vertex="1" parent="1">
          <mxGeometry x="600" y="70" width="60" height="80" as="geometry" />
        </mxCell>
        <mxCell id="nXGKTlA9eaVRCVyVd96u-18" value="Posts" style="shape=cylinder3;whiteSpace=wrap;html=1;boundedLbl=1;backgroundOutline=1;size=15;" vertex="1" parent="1">
          <mxGeometry x="600" y="210" width="60" height="80" as="geometry" />
        </mxCell>
        <mxCell id="nXGKTlA9eaVRCVyVd96u-19" value="followers" style="shape=cylinder3;whiteSpace=wrap;html=1;boundedLbl=1;backgroundOutline=1;size=15;" vertex="1" parent="1">
          <mxGeometry x="600" y="318" width="60" height="80" as="geometry" />
        </mxCell>
        <mxCell id="nXGKTlA9eaVRCVyVd96u-20" value="accounts" style="shape=cylinder3;whiteSpace=wrap;html=1;boundedLbl=1;backgroundOutline=1;size=15;" vertex="1" parent="1">
          <mxGeometry x="600" y="409" width="60" height="80" as="geometry" />
        </mxCell>
        <mxCell id="nXGKTlA9eaVRCVyVd96u-21" value="messages" style="shape=cylinder3;whiteSpace=wrap;html=1;boundedLbl=1;backgroundOutline=1;size=15;" vertex="1" parent="1">
          <mxGeometry x="600" y="510" width="60" height="80" as="geometry" />
        </mxCell>
        <mxCell id="nXGKTlA9eaVRCVyVd96u-22" value="" style="endArrow=classic;html=1;rounded=0;entryX=0;entryY=0;entryDx=0;entryDy=52.5;entryPerimeter=0;exitX=1;exitY=0.5;exitDx=0;exitDy=0;" edge="1" parent="1" source="nXGKTlA9eaVRCVyVd96u-3" target="nXGKTlA9eaVRCVyVd96u-17">
          <mxGeometry width="50" height="50" relative="1" as="geometry">
            <mxPoint x="510" y="290" as="sourcePoint" />
            <mxPoint x="560" y="240" as="targetPoint" />
          </mxGeometry>
        </mxCell>
        <mxCell id="nXGKTlA9eaVRCVyVd96u-23" value="" style="endArrow=classic;html=1;rounded=0;entryX=1;entryY=0.5;entryDx=0;entryDy=0;exitX=-0.067;exitY=0.521;exitDx=0;exitDy=0;exitPerimeter=0;" edge="1" parent="1" source="nXGKTlA9eaVRCVyVd96u-17" target="nXGKTlA9eaVRCVyVd96u-2">
          <mxGeometry width="50" height="50" relative="1" as="geometry">
            <mxPoint x="480" y="170" as="sourcePoint" />
            <mxPoint x="610" y="133" as="targetPoint" />
          </mxGeometry>
        </mxCell>
        <mxCell id="nXGKTlA9eaVRCVyVd96u-24" value="" style="endArrow=classic;html=1;rounded=0;entryX=1;entryY=0.5;entryDx=0;entryDy=0;exitX=0.011;exitY=0.454;exitDx=0;exitDy=0;exitPerimeter=0;" edge="1" parent="1" source="nXGKTlA9eaVRCVyVd96u-18" target="nXGKTlA9eaVRCVyVd96u-4">
          <mxGeometry width="50" height="50" relative="1" as="geometry">
            <mxPoint x="540" y="300" as="sourcePoint" />
            <mxPoint x="590" y="250" as="targetPoint" />
          </mxGeometry>
        </mxCell>
        <mxCell id="nXGKTlA9eaVRCVyVd96u-25" value="" style="endArrow=classic;html=1;rounded=0;exitX=1;exitY=0.5;exitDx=0;exitDy=0;" edge="1" parent="1" source="nXGKTlA9eaVRCVyVd96u-5" target="nXGKTlA9eaVRCVyVd96u-18">
          <mxGeometry width="50" height="50" relative="1" as="geometry">
            <mxPoint x="540" y="300" as="sourcePoint" />
            <mxPoint x="590" y="250" as="targetPoint" />
          </mxGeometry>
        </mxCell>
        <mxCell id="nXGKTlA9eaVRCVyVd96u-26" value="" style="endArrow=classic;html=1;rounded=0;exitX=1;exitY=0.594;exitDx=0;exitDy=0;exitPerimeter=0;entryX=0;entryY=0.5;entryDx=0;entryDy=0;entryPerimeter=0;" edge="1" parent="1" source="nXGKTlA9eaVRCVyVd96u-6" target="nXGKTlA9eaVRCVyVd96u-19">
          <mxGeometry width="50" height="50" relative="1" as="geometry">
            <mxPoint x="540" y="410" as="sourcePoint" />
            <mxPoint x="590" y="360" as="targetPoint" />
          </mxGeometry>
        </mxCell>
        <mxCell id="nXGKTlA9eaVRCVyVd96u-27" value="" style="endArrow=classic;html=1;rounded=0;exitX=1;exitY=0.5;exitDx=0;exitDy=0;entryX=0;entryY=0.5;entryDx=0;entryDy=0;entryPerimeter=0;" edge="1" parent="1" source="nXGKTlA9eaVRCVyVd96u-7" target="nXGKTlA9eaVRCVyVd96u-20">
          <mxGeometry width="50" height="50" relative="1" as="geometry">
            <mxPoint x="540" y="480" as="sourcePoint" />
            <mxPoint x="590" y="430" as="targetPoint" />
          </mxGeometry>
        </mxCell>
        <mxCell id="nXGKTlA9eaVRCVyVd96u-28" value="" style="endArrow=classic;html=1;rounded=0;exitX=1;exitY=0.5;exitDx=0;exitDy=0;entryX=0.044;entryY=0.563;entryDx=0;entryDy=0;entryPerimeter=0;" edge="1" parent="1" source="nXGKTlA9eaVRCVyVd96u-8" target="nXGKTlA9eaVRCVyVd96u-21">
          <mxGeometry width="50" height="50" relative="1" as="geometry">
            <mxPoint x="480" y="450" as="sourcePoint" />
            <mxPoint x="610" y="459" as="targetPoint" />
          </mxGeometry>
        </mxCell>
        <mxCell id="nXGKTlA9eaVRCVyVd96u-29" value="" style="rounded=0;whiteSpace=wrap;html=1;" vertex="1" parent="1">
          <mxGeometry x="326" y="610" width="180" height="590" as="geometry" />
        </mxCell>
        <mxCell id="nXGKTlA9eaVRCVyVd96u-30" value="Login" style="rounded=0;whiteSpace=wrap;html=1;" vertex="1" parent="1">
          <mxGeometry x="356" y="630" width="120" height="60" as="geometry" />
        </mxCell>
        <mxCell id="nXGKTlA9eaVRCVyVd96u-31" value="Register" style="rounded=0;whiteSpace=wrap;html=1;" vertex="1" parent="1">
          <mxGeometry x="356" y="700" width="120" height="60" as="geometry" />
        </mxCell>
        <mxCell id="nXGKTlA9eaVRCVyVd96u-32" value="Display Posts" style="rounded=0;whiteSpace=wrap;html=1;" vertex="1" parent="1">
          <mxGeometry x="356" y="770" width="120" height="60" as="geometry" />
        </mxCell>
        <mxCell id="nXGKTlA9eaVRCVyVd96u-33" value="Post posts" style="rounded=0;whiteSpace=wrap;html=1;" vertex="1" parent="1">
          <mxGeometry x="356" y="840" width="120" height="60" as="geometry" />
        </mxCell>
        <mxCell id="nXGKTlA9eaVRCVyVd96u-34" value="follow" style="rounded=0;whiteSpace=wrap;html=1;" vertex="1" parent="1">
          <mxGeometry x="356" y="910" width="120" height="60" as="geometry" />
        </mxCell>
        <mxCell id="nXGKTlA9eaVRCVyVd96u-35" value="account" style="rounded=0;whiteSpace=wrap;html=1;" vertex="1" parent="1">
          <mxGeometry x="356" y="980" width="120" height="60" as="geometry" />
        </mxCell>
        <mxCell id="nXGKTlA9eaVRCVyVd96u-36" value="messeges" style="rounded=0;whiteSpace=wrap;html=1;" vertex="1" parent="1">
          <mxGeometry x="356" y="1120" width="120" height="60" as="geometry" />
        </mxCell>
        <mxCell id="nXGKTlA9eaVRCVyVd96u-37" value="Modderators" style="rounded=0;whiteSpace=wrap;html=1;" vertex="1" parent="1">
          <mxGeometry x="46" y="850" width="120" height="60" as="geometry" />
        </mxCell>
        <mxCell id="nXGKTlA9eaVRCVyVd96u-38" value="" style="endArrow=classic;html=1;rounded=0;entryX=0;entryY=0.5;entryDx=0;entryDy=0;exitX=1;exitY=0.5;exitDx=0;exitDy=0;" edge="1" parent="1" source="nXGKTlA9eaVRCVyVd96u-37" target="nXGKTlA9eaVRCVyVd96u-30">
          <mxGeometry width="50" height="50" relative="1" as="geometry">
            <mxPoint x="206" y="770" as="sourcePoint" />
            <mxPoint x="256" y="720" as="targetPoint" />
          </mxGeometry>
        </mxCell>
        <mxCell id="nXGKTlA9eaVRCVyVd96u-39" value="" style="endArrow=classic;html=1;rounded=0;entryX=0;entryY=0.5;entryDx=0;entryDy=0;exitX=1;exitY=0.5;exitDx=0;exitDy=0;" edge="1" parent="1" source="nXGKTlA9eaVRCVyVd96u-37" target="nXGKTlA9eaVRCVyVd96u-31">
          <mxGeometry width="50" height="50" relative="1" as="geometry">
            <mxPoint x="226" y="910" as="sourcePoint" />
            <mxPoint x="276" y="860" as="targetPoint" />
          </mxGeometry>
        </mxCell>
        <mxCell id="nXGKTlA9eaVRCVyVd96u-40" value="" style="endArrow=classic;html=1;rounded=0;entryX=0;entryY=0.5;entryDx=0;entryDy=0;exitX=1;exitY=0.5;exitDx=0;exitDy=0;" edge="1" parent="1" source="nXGKTlA9eaVRCVyVd96u-37" target="nXGKTlA9eaVRCVyVd96u-32">
          <mxGeometry width="50" height="50" relative="1" as="geometry">
            <mxPoint x="176" y="890" as="sourcePoint" />
            <mxPoint x="366" y="740" as="targetPoint" />
          </mxGeometry>
        </mxCell>
        <mxCell id="nXGKTlA9eaVRCVyVd96u-41" value="" style="endArrow=classic;html=1;rounded=0;entryX=0;entryY=0.5;entryDx=0;entryDy=0;exitX=1;exitY=0.5;exitDx=0;exitDy=0;" edge="1" parent="1" source="nXGKTlA9eaVRCVyVd96u-37" target="nXGKTlA9eaVRCVyVd96u-33">
          <mxGeometry width="50" height="50" relative="1" as="geometry">
            <mxPoint x="176" y="890" as="sourcePoint" />
            <mxPoint x="366" y="810" as="targetPoint" />
          </mxGeometry>
        </mxCell>
        <mxCell id="nXGKTlA9eaVRCVyVd96u-42" value="" style="endArrow=classic;html=1;rounded=0;entryX=0;entryY=0.5;entryDx=0;entryDy=0;exitX=1;exitY=0.5;exitDx=0;exitDy=0;" edge="1" parent="1" source="nXGKTlA9eaVRCVyVd96u-37" target="nXGKTlA9eaVRCVyVd96u-34">
          <mxGeometry width="50" height="50" relative="1" as="geometry">
            <mxPoint x="176" y="890" as="sourcePoint" />
            <mxPoint x="366" y="880" as="targetPoint" />
          </mxGeometry>
        </mxCell>
        <mxCell id="nXGKTlA9eaVRCVyVd96u-43" value="" style="endArrow=classic;html=1;rounded=0;entryX=0;entryY=0.5;entryDx=0;entryDy=0;exitX=1;exitY=0.5;exitDx=0;exitDy=0;" edge="1" parent="1" source="nXGKTlA9eaVRCVyVd96u-37" target="nXGKTlA9eaVRCVyVd96u-35">
          <mxGeometry width="50" height="50" relative="1" as="geometry">
            <mxPoint x="186" y="900" as="sourcePoint" />
            <mxPoint x="376" y="890" as="targetPoint" />
          </mxGeometry>
        </mxCell>
        <mxCell id="nXGKTlA9eaVRCVyVd96u-44" value="" style="endArrow=classic;html=1;rounded=0;entryX=0.016;entryY=0.597;entryDx=0;entryDy=0;exitX=1;exitY=0.5;exitDx=0;exitDy=0;entryPerimeter=0;" edge="1" parent="1" source="nXGKTlA9eaVRCVyVd96u-37" target="nXGKTlA9eaVRCVyVd96u-36">
          <mxGeometry width="50" height="50" relative="1" as="geometry">
            <mxPoint x="196" y="910" as="sourcePoint" />
            <mxPoint x="386" y="900" as="targetPoint" />
          </mxGeometry>
        </mxCell>
        <mxCell id="nXGKTlA9eaVRCVyVd96u-45" value="login" style="shape=cylinder3;whiteSpace=wrap;html=1;boundedLbl=1;backgroundOutline=1;size=15;" vertex="1" parent="1">
          <mxGeometry x="606" y="640" width="60" height="80" as="geometry" />
        </mxCell>
        <mxCell id="nXGKTlA9eaVRCVyVd96u-46" value="Posts" style="shape=cylinder3;whiteSpace=wrap;html=1;boundedLbl=1;backgroundOutline=1;size=15;" vertex="1" parent="1">
          <mxGeometry x="606" y="780" width="60" height="80" as="geometry" />
        </mxCell>
        <mxCell id="nXGKTlA9eaVRCVyVd96u-47" value="Followers" style="shape=cylinder3;whiteSpace=wrap;html=1;boundedLbl=1;backgroundOutline=1;size=15;" vertex="1" parent="1">
          <mxGeometry x="606" y="888" width="60" height="80" as="geometry" />
        </mxCell>
        <mxCell id="nXGKTlA9eaVRCVyVd96u-48" value="Accounts" style="shape=cylinder3;whiteSpace=wrap;html=1;boundedLbl=1;backgroundOutline=1;size=15;" vertex="1" parent="1">
          <mxGeometry x="606" y="979" width="60" height="80" as="geometry" />
        </mxCell>
        <mxCell id="nXGKTlA9eaVRCVyVd96u-49" value="messages" style="shape=cylinder3;whiteSpace=wrap;html=1;boundedLbl=1;backgroundOutline=1;size=15;" vertex="1" parent="1">
          <mxGeometry x="606" y="1080" width="60" height="80" as="geometry" />
        </mxCell>
        <mxCell id="nXGKTlA9eaVRCVyVd96u-50" value="" style="endArrow=classic;html=1;rounded=0;entryX=0;entryY=0;entryDx=0;entryDy=52.5;entryPerimeter=0;exitX=1;exitY=0.5;exitDx=0;exitDy=0;" edge="1" parent="1" source="nXGKTlA9eaVRCVyVd96u-31" target="nXGKTlA9eaVRCVyVd96u-45">
          <mxGeometry width="50" height="50" relative="1" as="geometry">
            <mxPoint x="516" y="860" as="sourcePoint" />
            <mxPoint x="566" y="810" as="targetPoint" />
          </mxGeometry>
        </mxCell>
        <mxCell id="nXGKTlA9eaVRCVyVd96u-51" value="" style="endArrow=classic;html=1;rounded=0;entryX=1;entryY=0.5;entryDx=0;entryDy=0;exitX=-0.067;exitY=0.521;exitDx=0;exitDy=0;exitPerimeter=0;" edge="1" parent="1" source="nXGKTlA9eaVRCVyVd96u-45" target="nXGKTlA9eaVRCVyVd96u-30">
          <mxGeometry width="50" height="50" relative="1" as="geometry">
            <mxPoint x="486" y="740" as="sourcePoint" />
            <mxPoint x="616" y="703" as="targetPoint" />
          </mxGeometry>
        </mxCell>
        <mxCell id="nXGKTlA9eaVRCVyVd96u-52" value="" style="endArrow=classic;html=1;rounded=0;entryX=1;entryY=0.5;entryDx=0;entryDy=0;exitX=0.011;exitY=0.454;exitDx=0;exitDy=0;exitPerimeter=0;" edge="1" parent="1" source="nXGKTlA9eaVRCVyVd96u-46" target="nXGKTlA9eaVRCVyVd96u-32">
          <mxGeometry width="50" height="50" relative="1" as="geometry">
            <mxPoint x="546" y="870" as="sourcePoint" />
            <mxPoint x="596" y="820" as="targetPoint" />
          </mxGeometry>
        </mxCell>
        <mxCell id="nXGKTlA9eaVRCVyVd96u-53" value="" style="endArrow=classic;html=1;rounded=0;exitX=1;exitY=0.5;exitDx=0;exitDy=0;" edge="1" parent="1" source="nXGKTlA9eaVRCVyVd96u-33" target="nXGKTlA9eaVRCVyVd96u-46">
          <mxGeometry width="50" height="50" relative="1" as="geometry">
            <mxPoint x="546" y="870" as="sourcePoint" />
            <mxPoint x="596" y="820" as="targetPoint" />
          </mxGeometry>
        </mxCell>
        <mxCell id="nXGKTlA9eaVRCVyVd96u-54" value="" style="endArrow=classic;html=1;rounded=0;exitX=1;exitY=0.594;exitDx=0;exitDy=0;exitPerimeter=0;entryX=0;entryY=0.5;entryDx=0;entryDy=0;entryPerimeter=0;" edge="1" parent="1" source="nXGKTlA9eaVRCVyVd96u-34" target="nXGKTlA9eaVRCVyVd96u-47">
          <mxGeometry width="50" height="50" relative="1" as="geometry">
            <mxPoint x="546" y="980" as="sourcePoint" />
            <mxPoint x="596" y="930" as="targetPoint" />
          </mxGeometry>
        </mxCell>
        <mxCell id="nXGKTlA9eaVRCVyVd96u-55" value="" style="endArrow=classic;html=1;rounded=0;exitX=1;exitY=0.5;exitDx=0;exitDy=0;entryX=0;entryY=0.5;entryDx=0;entryDy=0;entryPerimeter=0;" edge="1" parent="1" source="nXGKTlA9eaVRCVyVd96u-35" target="nXGKTlA9eaVRCVyVd96u-48">
          <mxGeometry width="50" height="50" relative="1" as="geometry">
            <mxPoint x="546" y="1050" as="sourcePoint" />
            <mxPoint x="596" y="1000" as="targetPoint" />
          </mxGeometry>
        </mxCell>
        <mxCell id="nXGKTlA9eaVRCVyVd96u-56" value="" style="endArrow=classic;html=1;rounded=0;exitX=1;exitY=0.5;exitDx=0;exitDy=0;entryX=0.044;entryY=0.563;entryDx=0;entryDy=0;entryPerimeter=0;" edge="1" parent="1" source="nXGKTlA9eaVRCVyVd96u-36" target="nXGKTlA9eaVRCVyVd96u-49">
          <mxGeometry width="50" height="50" relative="1" as="geometry">
            <mxPoint x="486" y="1020" as="sourcePoint" />
            <mxPoint x="616" y="1029" as="targetPoint" />
          </mxGeometry>
        </mxCell>
        <mxCell id="nXGKTlA9eaVRCVyVd96u-57" value="manage&lt;br&gt;accounts" style="rounded=0;whiteSpace=wrap;html=1;" vertex="1" parent="1">
          <mxGeometry x="356" y="1050" width="120" height="60" as="geometry" />
        </mxCell>
        <mxCell id="nXGKTlA9eaVRCVyVd96u-58" value="" style="endArrow=classic;html=1;rounded=0;entryX=0;entryY=0;entryDx=0;entryDy=52.5;entryPerimeter=0;exitX=1;exitY=0.5;exitDx=0;exitDy=0;" edge="1" parent="1" source="nXGKTlA9eaVRCVyVd96u-57" target="nXGKTlA9eaVRCVyVd96u-48">
          <mxGeometry width="50" height="50" relative="1" as="geometry">
            <mxPoint x="420" y="1080" as="sourcePoint" />
            <mxPoint x="470" y="1030" as="targetPoint" />
          </mxGeometry>
        </mxCell>
        <mxCell id="nXGKTlA9eaVRCVyVd96u-59" value="" style="endArrow=classic;html=1;rounded=0;exitX=1;exitY=0.5;exitDx=0;exitDy=0;entryX=0;entryY=0.5;entryDx=0;entryDy=0;" edge="1" parent="1" source="nXGKTlA9eaVRCVyVd96u-37" target="nXGKTlA9eaVRCVyVd96u-57">
          <mxGeometry width="50" height="50" relative="1" as="geometry">
            <mxPoint x="420" y="1080" as="sourcePoint" />
            <mxPoint x="470" y="1030" as="targetPoint" />
          </mxGeometry>
        </mxCell>
      </root>
    </mxGraphModel>
  </diagram>
</mxfile>
